<svg id="레이어_1" data-name="레이어 1" xmlns="http://www.w3.org/2000/svg" viewBox="0 0 460 460"><defs><style>.cls-1{fill:#f5cd1e;}</style></defs><path class="cls-1" d="M230,0C102.974,0,0,102.974,0,230S102.974,460,230,460,460,357.025,460,230,357.026,0,230,0Zm83.742,117.107A30.646,30.646,0,1,1,283.1,147.753,30.646,30.646,0,0,1,313.742,117.107Zm-167.484,0a30.646,30.646,0,1,1-30.645,30.646A30.646,30.646,0,0,1,146.258,117.107ZM370.386,266.019c-42,49.849-87.839,75.109-136.285,75.109-.868,0-1.73-.008-2.6-.024-80.541-1.5-136.891-72.5-139.251-75.518A15,15,0,0,1,115.883,247.1c.494.628,50.192,62.887,116.354,64.008,39.891.652,78.623-21,115.205-64.422a15,15,0,0,1,22.944,19.329Z"/></svg>